 <svg  version="1.0" xmlns="http://www.w3.org/2000/svg"  width="300.000000pt" height="61.000000pt" viewBox="0 0 300.000000 61.000000"  preserveAspectRatio="xMidYMid meet">  <g transform="translate(0.000000,61.000000) scale(0.100000,-0.100000)" fill="#ffffff" stroke="none"> <path d="M100 298 l0 -283 175 0 175 0 0 28 0 27 -145 0 -146 0 3 255 3 255 -32 0 -33 0 0 -282z"/> <path d="M510 545 c0 -34 1 -35 40 -35 39 0 40 1 40 35 0 34 -1 35 -40 35 -39 0 -40 -1 -40 -35z"/> <path d="M1130 296 l0 -285 30 1 30 1 0 94 c0 51 3 93 6 93 4 0 50 -42 104 -93 90 -87 100 -94 140 -95 l44 -2 -110 105 -109 105 100 95 100 95 -39 0 c-35 0 -48 -9 -137 -91 l-99 -91 0 176 0 176 -30 0 -30 0 0 -284z"/> <path d="M2210 461 l0 -119 -32 32 c-60 60 -163 55 -225 -10 -79 -85 -65 -257 28 -326 55 -41 150 -35 199 13 l30 31 0 -36 c0 -32 2 -35 30 -34 l30 1 0 284 0 283 -30 0 -30 0 0 -119z m-40 -131 c57 -61 53 -189 -8 -243 -29 -27 -92 -33 -130 -13 -80 41 -93 195 -22 259 25 22 40 27 81 27 44 0 55 -4 79 -30z"/> <path d="M2374 545 c1 -34 2 -35 39 -35 36 0 37 1 37 35 0 34 -1 35 -38 35 -37 0 -38 -1 -38 -35z"/> <path d="M836 410 c-16 -5 -42 -21 -57 -36 l-29 -28 0 32 c0 29 -3 32 -30 32 l-30 0 0 -198 0 -199 29 -1 30 -1 3 146 3 145 33 29 c26 24 41 29 81 29 42 0 53 -4 70 -26 19 -24 21 -40 21 -175 l0 -149 31 3 31 2 -1 155 c-2 164 -8 190 -51 221 -30 22 -95 31 -134 19z"/> <path d="M1628 411 c-87 -28 -138 -102 -138 -200 1 -132 89 -211 220 -199 51 5 120 35 120 52 -1 32 -16 37 -61 17 -56 -26 -115 -26 -156 -1 -35 21 -47 39 -58 88 l-7 32 148 0 147 0 -6 55 c-6 64 -37 119 -77 140 -37 19 -98 26 -132 16z m101 -56 c25 -13 61 -75 61 -105 0 -6 -48 -10 -120 -10 l-120 0 6 28 c21 84 101 125 173 87z"/> <path d="M2695 405 c-22 -8 -51 -27 -64 -42 l-23 -28 5 38 c6 37 5 37 -29 37 l-34 0 0 -200 0 -200 33 3 32 3 2 128 c1 71 7 141 13 157 17 40 52 59 108 59 81 0 86 -13 90 -194 l3 -153 30 0 29 0 0 149 c0 161 -10 204 -52 232 -35 23 -98 28 -143 11z"/> <path d="M512 213 l3 -197 33 -2 32 -2 0 199 0 199 -35 0 -35 0 2 -197z"/> <path d="M2380 212 l0 -199 30 -1 30 -1 0 200 0 199 -30 0 -30 0 0 -198z"/> </g> </svg> 