<?xml version="1.0" standalone="no"?>
<!DOCTYPE svg PUBLIC "-//W3C//DTD SVG 20010904//EN"
 "http://www.w3.org/TR/2001/REC-SVG-20010904/DTD/svg10.dtd">
<svg version="1.0" xmlns="http://www.w3.org/2000/svg"
 width="256.000000pt" height="256.000000pt" viewBox="0 0 256.000000 256.000000"
 preserveAspectRatio="xMidYMid meet">
<metadata>
Created by potrace 1.10, written by Peter Selinger 2001-2011
</metadata>
<g transform="translate(0.000000,256.000000) scale(0.050000,-0.050000)"
fill="#d10000" stroke="none">
<path d="M2330 4778 c-1653 -196 -2507 -2076 -1578 -3473 961 -1443 3203
-1239 3890 355 686 1592 -597 3322 -2312 3118z m680 -176 c2088 -433 2250
-3396 220 -4028 -1735 -540 -3288 1245 -2509 2885 407 855 1367 1334 2289
1143z"/>
<path d="M1708 3732 c-242 -106 -171 -472 92 -472 260 0 336 373 96 469 -92
37 -108 37 -188 3z"/>
<path d="M2996 3072 c-96 -26 -230 -114 -250 -164 -22 -58 -46 -25 -46 62 l0
90 -200 0 -200 0 0 -700 0 -700 209 0 208 0 7 435 c8 541 43 625 260 625 202
0 236 -92 236 -645 l0 -415 211 0 212 0 -7 535 c-6 531 -6 536 -59 649 -96
204 -329 296 -581 228z"/>
<path d="M1600 2360 l0 -700 210 0 210 0 0 700 0 700 -210 0 -210 0 0 -700z"/>
</g>
</svg>
